<?xml version="1.0" standalone="no"?>
<!DOCTYPE svg PUBLIC "-//W3C//DTD SVG 20010904//EN"
 "http://www.w3.org/TR/2001/REC-SVG-20010904/DTD/svg10.dtd">
<svg version="1.0" xmlns="http://www.w3.org/2000/svg"
 width="1392.000000pt" height="1392.000000pt" viewBox="0 0 1392.000000 1392.000000"
 preserveAspectRatio="xMidYMid meet">
<metadata>
Created by potrace 1.11, written by Peter Selinger 2001-2013
</metadata>
<g transform="translate(0.000000,1392.000000) scale(0.100000,-0.100000)"
fill="#000000" stroke="none">
<path d="M6496 11963 c-7 -8 -25 -9 -109 -12 -32 -1 -46 -5 -41 -12 5 -8 1 -8
-13 0 -11 6 -23 8 -27 4 -3 -3 -27 -8 -53 -9 -27 -2 -64 -6 -83 -10 -19 -3
-45 -7 -57 -7 -13 -1 -23 -6 -23 -11 0 -6 -5 -4 -10 4 -7 11 -10 12 -10 2 0
-8 -6 -12 -12 -9 -7 2 -21 0 -30 -5 -12 -6 -18 -5 -18 3 0 8 -5 7 -17 -2 -9
-8 -18 -13 -20 -11 -1 1 -4 2 -5 1 -2 0 -12 -2 -23 -4 -11 -1 -38 -6 -60 -10
-22 -4 -49 -9 -60 -10 -11 -1 -20 -3 -20 -4 0 -4 -40 -12 -57 -12 -10 0 -18
-4 -18 -9 0 -4 -11 -7 -25 -5 -14 1 -25 -1 -25 -5 0 -7 -9 -9 -55 -12 -14 -1
-25 -5 -25 -9 0 -3 -10 -6 -22 -5 -13 1 -25 -2 -28 -6 -3 -4 -17 -9 -30 -11
-14 -3 -38 -10 -53 -16 -16 -6 -33 -9 -38 -5 -5 3 -9 0 -9 -6 0 -6 -4 -8 -10
-5 -5 3 -10 2 -10 -2 0 -5 -9 -10 -20 -11 -44 -4 -50 -6 -50 -14 0 -5 -8 -8
-17 -7 -10 1 -36 -6 -58 -16 -22 -10 -46 -18 -52 -18 -7 0 -13 -3 -13 -7 0 -4
-7 -7 -15 -8 -8 -1 -22 -3 -30 -4 -8 -1 -15 -5 -15 -10 0 -5 -4 -6 -10 -3 -5
3 -10 1 -10 -4 0 -6 -3 -10 -7 -10 -5 1 -11 0 -15 -1 -5 -1 -11 -3 -15 -5 -51
-14 -62 -18 -59 -24 2 -3 -8 -7 -22 -8 -15 0 -28 -6 -30 -12 -2 -6 -8 -9 -13
-6 -4 3 -20 -2 -35 -12 -15 -9 -34 -18 -42 -19 -8 -2 -19 -9 -23 -16 -5 -7 -9
-10 -9 -5 0 4 -22 -4 -50 -18 -27 -14 -50 -22 -50 -18 0 5 -4 3 -8 -2 -8 -12
-212 -118 -212 -110 0 3 -9 -4 -20 -15 -12 -12 -25 -18 -29 -15 -5 2 -12 -2
-15 -11 -3 -8 -10 -12 -16 -9 -5 3 -10 1 -10 -4 0 -6 -7 -11 -15 -11 -8 0 -15
-5 -15 -12 0 -6 -3 -8 -7 -5 -3 4 -15 0 -25 -10 -10 -9 -18 -13 -18 -9 0 4 -6
2 -12 -4 -34 -28 -129 -89 -122 -78 4 7 -3 4 -14 -7 -34 -33 -52 -46 -52 -40
0 4 -7 -1 -16 -9 -8 -9 -20 -14 -25 -11 -5 4 -9 2 -9 -3 0 -5 -21 -24 -47 -42
-27 -19 -50 -38 -51 -42 -2 -5 -8 -6 -13 -2 -5 3 -12 -2 -15 -10 -3 -9 -11
-16 -16 -16 -6 0 -19 -10 -29 -22 -11 -11 -19 -17 -19 -13 0 5 -8 0 -19 -11
-10 -10 -31 -28 -47 -39 -15 -11 -38 -29 -50 -40 -13 -11 -36 -30 -52 -42 -16
-12 -41 -34 -55 -47 -15 -14 -27 -23 -27 -21 0 2 -18 -14 -39 -35 -22 -22 -44
-40 -50 -40 -5 0 -13 -9 -16 -20 -3 -11 -11 -20 -16 -20 -5 0 -57 -47 -114
-104 -57 -57 -106 -101 -109 -98 -3 3 -6 -4 -6 -16 0 -12 -6 -22 -13 -22 -8 0
-20 -11 -27 -25 -7 -13 -17 -22 -22 -19 -4 3 -8 1 -8 -5 0 -8 -49 -67 -102
-123 -10 -10 -18 -22 -18 -28 0 -5 -7 -10 -15 -10 -8 0 -15 -7 -15 -15 0 -9
-7 -18 -15 -21 -8 -4 -12 -10 -9 -15 3 -5 -2 -9 -11 -9 -9 0 -14 -4 -11 -8 3
-5 -10 -24 -29 -43 -19 -19 -35 -38 -35 -42 0 -5 -15 -27 -33 -50 -19 -23 -37
-50 -40 -59 -4 -10 -11 -18 -17 -18 -6 0 -15 -12 -20 -26 -6 -14 -14 -22 -20
-19 -5 3 -7 0 -5 -8 3 -7 -3 -22 -15 -32 -11 -10 -20 -24 -20 -32 0 -7 -7 -16
-15 -19 -8 -4 -12 -10 -9 -15 3 -5 -1 -12 -9 -15 -9 -3 -18 -17 -21 -30 -4
-15 -11 -22 -18 -18 -6 4 -8 3 -4 -4 3 -6 1 -16 -6 -24 -7 -7 -22 -30 -33 -50
-11 -21 -23 -38 -28 -38 -4 0 -5 -4 -2 -10 3 -5 2 -10 -2 -10 -5 0 -17 -17
-28 -37 -11 -21 -32 -59 -47 -85 -14 -25 -24 -49 -21 -52 4 -3 1 -6 -5 -6 -7
0 -12 -7 -12 -15 0 -8 -5 -15 -11 -15 -5 0 -8 -4 -4 -9 3 -5 -1 -16 -9 -24 -8
-8 -12 -17 -9 -21 4 -3 1 -6 -6 -6 -7 0 -9 -5 -6 -10 3 -6 -1 -13 -9 -16 -9
-3 -14 -10 -11 -14 3 -5 1 -11 -5 -15 -6 -4 -8 -10 -5 -15 3 -4 -2 -13 -10
-20 -8 -7 -12 -16 -9 -21 3 -5 0 -9 -6 -9 -6 0 -9 -4 -5 -9 3 -5 1 -12 -5 -16
-6 -4 -8 -11 -5 -16 4 -5 2 -9 -2 -9 -9 0 -43 -70 -47 -96 -1 -9 -9 -20 -17
-25 -8 -5 -11 -9 -7 -9 4 0 0 -17 -9 -37 -8 -21 -20 -49 -26 -63 -6 -14 -11
-27 -12 -30 -1 -3 -7 -18 -14 -35 -7 -16 -14 -38 -17 -49 -2 -10 -11 -30 -19
-43 -9 -14 -14 -27 -11 -30 3 -3 -1 -18 -10 -34 -8 -16 -12 -29 -9 -29 3 0 1
-9 -5 -21 -6 -11 -13 -30 -15 -41 -3 -12 -8 -24 -12 -27 -5 -3 -9 -17 -11 -31
-5 -42 -8 -54 -19 -75 -6 -11 -11 -23 -12 -27 -1 -5 -2 -10 -2 -13 -1 -3 -3
-9 -4 -15 -1 -5 -3 -22 -4 -36 0 -14 -5 -23 -10 -20 -5 3 -9 -7 -10 -22 -1
-47 -4 -62 -12 -62 -5 0 -6 -7 -3 -15 4 -8 2 -15 -4 -15 -6 0 -8 -9 -5 -20 3
-11 1 -20 -4 -20 -6 0 -9 -11 -8 -25 2 -14 0 -25 -4 -25 -4 0 -6 -12 -6 -27 1
-16 -1 -32 -4 -38 -3 -5 -7 -17 -8 -25 -6 -32 -14 -76 -18 -102 -7 -46 -10
-53 -20 -60 -6 -5 -5 -8 3 -8 10 0 10 -5 2 -20 -6 -10 -10 -23 -9 -27 4 -24
-2 -74 -8 -70 -5 3 -8 -21 -7 -54 0 -32 -3 -59 -8 -59 -4 0 -5 -6 -2 -14 3 -8
1 -17 -4 -20 -6 -3 -7 -20 -2 -40 4 -19 5 -37 3 -40 -10 -10 -16 -98 -17 -278
0 -104 -4 -188 -8 -188 -4 0 -4 -10 0 -22 4 -13 7 -94 7 -180 0 -87 3 -158 8
-158 4 0 7 -5 7 -11 0 -5 -5 -7 -12 -3 -7 5 -8 3 -2 -7 4 -8 9 -25 9 -39 0
-14 5 -31 9 -39 7 -10 5 -12 -3 -6 -10 6 -11 3 -2 -12 6 -11 8 -23 5 -26 -3
-3 0 -15 6 -27 8 -15 8 -20 1 -16 -6 4 -11 2 -11 -3 0 -6 4 -11 8 -11 4 0 7
-12 6 -27 0 -15 4 -45 9 -66 8 -31 12 -36 19 -23 5 9 13 14 19 11 5 -4 6 2 2
11 -4 12 -3 15 5 10 7 -4 12 -1 12 9 0 9 5 13 10 10 6 -3 10 -2 10 3 0 5 25
35 55 66 30 31 55 61 55 68 0 6 2 9 5 6 7 -7 135 120 135 133 0 5 4 9 9 9 5 0
43 33 83 73 41 39 112 106 157 147 46 41 96 87 111 102 15 15 30 24 34 21 3
-4 6 2 6 12 0 10 3 16 6 12 3 -3 21 10 39 29 18 19 36 34 39 34 5 0 65 52 118
103 10 9 18 14 18 11 0 -4 14 7 30 25 17 17 34 31 39 31 5 0 11 3 13 8 2 4 26
25 53 47 28 22 58 49 68 59 9 10 17 15 17 11 0 -4 15 8 34 28 18 20 36 33 40
30 3 -3 8 2 12 11 3 9 10 13 15 10 8 -5 14 24 10 54 -1 6 4 12 11 12 9 0 9 3
-2 10 -11 7 -11 10 -2 10 7 0 10 4 7 10 -3 5 -1 19 6 31 9 17 8 20 -2 14 -8
-6 -10 -4 -3 6 4 8 10 23 11 34 9 68 15 85 26 78 7 -4 7 0 -2 10 -7 9 -9 17
-4 17 5 0 8 14 7 30 -1 17 2 32 6 35 5 3 7 14 5 25 -2 11 1 20 7 20 5 0 8 6 5
14 -3 8 -3 17 1 20 3 4 8 19 10 34 2 15 9 30 15 34 7 4 8 8 3 8 -5 0 -3 6 3
13 6 8 8 17 5 20 -4 3 -3 14 1 24 10 22 16 44 17 61 1 6 4 12 7 12 4 0 8 12 9
27 1 15 8 30 15 35 6 4 9 8 5 8 -8 0 31 114 53 155 5 12 11 27 13 35 6 31 39
100 48 100 5 0 8 6 7 13 -2 23 13 57 24 50 6 -3 7 -1 3 5 -7 11 11 51 29 64 6
4 6 8 2 8 -4 0 -2 10 5 23 7 12 11 25 10 30 -1 4 2 7 6 7 5 0 14 16 22 35 8
19 16 35 19 35 8 0 36 63 33 73 -1 4 3 7 9 7 5 0 17 16 25 35 8 19 19 35 24
35 6 0 10 7 10 15 0 9 9 25 20 37 10 12 17 24 15 28 -3 5 2 10 10 14 8 3 15
12 15 21 0 8 3 15 8 15 4 1 23 25 42 55 19 30 38 55 43 55 4 0 7 5 7 11 0 6 6
16 13 23 6 8 19 24 27 36 8 13 28 37 45 54 16 17 30 33 30 36 0 7 19 29 63 74
17 19 32 39 32 46 0 6 5 8 10 5 6 -3 10 -1 10 5 0 6 53 64 119 128 115 114
221 212 221 206 0 -2 11 7 24 19 40 38 97 81 127 98 16 9 26 19 22 22 -3 4 3
10 13 13 10 4 29 16 42 27 12 11 22 16 22 11 0 -5 4 -4 8 1 12 17 80 65 92 65
6 0 9 4 6 9 -3 5 6 12 21 16 15 3 35 15 44 26 10 11 20 20 23 21 22 0 46 12
50 25 3 8 10 12 15 9 5 -3 14 1 21 9 7 8 16 12 21 9 5 -3 9 -1 9 5 0 5 16 15
35 22 19 7 35 16 35 20 0 7 50 23 63 20 5 -1 6 3 2 9 -5 9 -1 11 20 10 3 -1
13 6 21 15 9 8 19 13 24 10 5 -3 10 -2 12 2 1 5 18 16 36 25 20 11 30 13 26 5
-4 -6 1 -5 12 4 18 15 68 40 89 45 6 1 24 8 40 15 17 7 36 11 43 10 6 -1 12 2
12 8 0 5 23 15 50 22 28 7 50 16 50 21 0 4 13 8 29 8 17 0 33 5 36 11 4 6 13
8 21 5 8 -3 14 -2 14 3 0 5 27 14 60 21 33 7 63 16 66 21 2 4 13 6 24 4 11 -2
20 0 20 6 0 5 13 9 29 9 17 0 33 4 36 10 3 5 19 8 35 6 16 -2 31 1 33 7 2 6
19 11 38 12 19 0 39 3 44 6 6 3 22 5 38 4 15 0 27 3 27 7 0 4 10 8 23 8 36 -1
71 5 85 13 7 5 12 3 12 -5 0 -9 3 -9 8 -2 4 6 14 11 22 12 8 1 44 3 80 6 36 2
65 5 65 6 0 1 25 4 55 6 30 2 63 6 73 8 9 2 17 -1 17 -7 0 -9 2 -9 8 -1 4 6
16 10 27 8 10 -2 25 2 31 7 8 7 14 6 19 -1 5 -8 10 -8 20 0 9 8 15 8 20 0 3
-5 11 -10 16 -10 6 0 7 5 3 11 -4 8 -1 8 12 1 28 -15 36 -15 45 0 7 10 9 10 9
1 0 -7 5 -13 11 -13 5 0 7 5 3 12 -5 7 -3 8 7 2 19 -12 33 -12 41 1 5 7 8 7 8
0 0 -7 38 -12 96 -13 60 -1 103 -7 112 -14 13 -10 14 -10 8 0 -4 7 -1 12 9 12
9 0 13 -5 9 -11 -4 -8 0 -8 15 0 11 7 21 8 21 3 0 -5 15 -9 33 -10 82 -2 107
-4 107 -10 0 -4 24 -7 54 -7 30 0 52 -4 48 -9 -3 -5 5 -7 16 -4 12 4 22 2 22
-2 0 -4 9 -6 20 -3 13 3 20 0 20 -8 0 -11 2 -11 10 1 8 12 10 12 10 1 0 -8 3
-11 7 -8 3 4 12 2 20 -4 10 -9 13 -8 13 0 0 7 5 9 13 4 6 -4 17 -8 22 -10 39
-8 57 -13 88 -21 20 -6 38 -7 41 -4 3 3 6 1 6 -4 0 -5 11 -11 26 -12 14 -1 34
-7 45 -12 10 -6 19 -7 19 -3 0 4 5 1 10 -7 8 -12 10 -12 10 -1 0 11 5 10 20
-4 11 -10 20 -15 20 -12 0 4 12 2 28 -4 15 -6 38 -13 52 -16 13 -2 29 -8 35
-12 5 -5 31 -14 57 -22 26 -7 45 -16 43 -19 -2 -3 8 -7 23 -8 15 -1 28 -6 30
-12 2 -5 10 -6 18 -3 8 3 14 -1 14 -8 0 -7 3 -10 6 -7 3 3 37 -10 75 -28 39
-19 74 -32 79 -29 4 3 11 -2 14 -11 3 -8 10 -12 16 -9 5 3 10 2 10 -3 0 -9 21
-19 60 -27 8 -2 16 -9 18 -14 2 -6 12 -11 23 -11 10 0 19 -4 19 -10 0 -5 7
-10 15 -10 8 0 15 -5 15 -12 0 -6 3 -9 6 -5 3 3 24 -5 45 -19 21 -13 43 -24
48 -24 5 0 11 -5 13 -10 5 -15 33 -15 110 -1 45 9 66 17 61 25 -4 7 -1 7 7 -1
9 -8 19 -9 32 -2 10 5 18 7 18 3 0 -3 6 -2 13 3 6 6 20 9 29 8 10 -2 20 1 24
6 3 5 10 7 15 3 5 -3 15 -1 22 5 7 5 22 9 32 7 11 -2 27 0 35 5 8 4 49 13 90
20 41 7 83 16 94 22 13 7 16 6 11 -3 -6 -9 -2 -9 14 -1 12 7 26 9 31 6 6 -3
10 -1 10 4 0 6 5 11 11 11 5 0 7 -5 3 -11 -4 -7 3 -6 17 2 13 7 35 14 49 15
63 7 88 12 99 18 6 4 11 2 11 -5 0 -9 3 -9 14 0 8 6 18 11 22 10 5 -1 11 0 14
1 3 1 19 4 35 5 17 2 30 4 30 5 0 4 49 10 200 25 32 3 66 12 74 18 12 10 13 9
7 -2 -6 -10 -4 -12 11 -7 11 4 44 9 72 11 29 3 57 7 62 10 5 4 9 0 10 -7 0 -7
4 -4 9 7 5 11 9 15 9 10 1 -11 51 -16 51 -5 0 9 65 5 72 -5 5 -6 8 -6 8 1 0 6
17 10 40 10 22 -1 40 3 40 7 0 5 8 3 17 -4 9 -8 14 -9 10 -3 -5 8 7 11 38 9
26 -2 43 1 39 6 -3 5 -1 9 5 9 6 0 0 10 -12 23 -12 13 -25 22 -29 20 -4 -2 -9
6 -13 17 -3 11 -11 20 -16 20 -6 0 -7 5 -3 12 4 6 3 8 -4 4 -6 -3 -17 3 -26
15 -8 12 -28 30 -43 40 -15 11 -25 19 -20 19 4 0 -10 16 -30 35 -20 19 -41 35
-45 35 -4 0 -8 7 -8 16 0 8 -4 13 -8 10 -5 -3 -25 13 -45 35 -20 22 -37 37
-37 33 0 -4 -8 3 -19 14 -10 12 -21 19 -25 15 -3 -3 -6 2 -6 12 0 10 -3 15 -6
12 -4 -3 -20 8 -35 24 -16 17 -29 28 -29 24 0 -5 -8 2 -19 13 -10 12 -21 19
-25 15 -3 -3 -6 1 -6 10 0 9 -11 19 -25 23 -14 3 -22 10 -19 15 3 5 -2 9 -10
9 -9 0 -16 5 -16 10 0 6 -7 10 -16 10 -8 0 -12 5 -9 10 3 6 0 10 -8 10 -7 0
-24 10 -37 23 -14 12 -28 22 -33 22 -5 0 -15 8 -22 18 -7 10 -17 19 -22 20 -4
1 -7 5 -5 10 1 4 -1 6 -5 5 -12 -4 -73 35 -73 45 0 5 -6 7 -13 4 -14 -5 -39
17 -30 27 4 3 -2 6 -13 6 -11 0 -26 9 -34 19 -7 11 -17 18 -21 15 -4 -2 -14 1
-21 8 -8 7 -23 18 -33 24 -55 30 -70 40 -83 52 -7 6 -18 12 -23 12 -20 0 -24
2 -32 16 -4 8 -15 14 -22 14 -8 0 -15 5 -15 11 0 5 -4 8 -9 5 -5 -3 -14 1 -21
9 -7 8 -17 15 -22 15 -5 0 -20 8 -35 17 -14 10 -33 18 -42 20 -9 1 -17 7 -19
12 -2 6 -12 11 -22 11 -10 0 -20 5 -22 11 -2 5 -11 11 -21 13 -10 1 -27 10
-38 19 -10 9 -23 16 -27 15 -12 -2 -46 15 -60 31 -8 9 -11 10 -7 3 4 -7 -7 -4
-26 7 -18 11 -36 18 -41 15 -4 -3 -8 0 -8 5 0 6 -3 10 -7 9 -5 -1 -25 5 -45
15 -121 55 -176 76 -182 69 -3 -3 -6 0 -6 7 0 7 -6 11 -13 8 -7 -3 -21 1 -31
9 -11 7 -23 11 -27 8 -5 -3 -9 -1 -9 4 0 5 -15 12 -32 16 -56 10 -62 12 -66
24 -2 7 -8 10 -13 6 -5 -3 -15 -2 -21 3 -7 4 -20 8 -28 9 -17 1 -47 11 -72 25
-10 5 -29 9 -43 9 -14 0 -25 3 -25 8 0 4 -14 8 -32 9 -17 1 -34 6 -37 11 -3 4
-13 7 -21 7 -8 -1 -20 3 -27 8 -7 5 -17 6 -22 3 -5 -4 -13 -1 -17 5 -4 8 -9 7
-15 -2 -7 -11 -9 -9 -9 6 0 17 -2 17 -10 5 -6 -9 -10 -10 -10 -3 0 6 -9 10
-20 8 -11 -2 -20 1 -20 7 0 5 -7 8 -15 5 -8 -4 -17 -2 -20 2 -3 5 -14 7 -25 4
-11 -3 -20 -1 -20 3 0 5 -16 10 -37 11 -20 1 -39 7 -43 14 -6 8 -9 8 -15 0 -5
-9 -10 -9 -20 -1 -8 7 -19 9 -24 6 -5 -4 -13 -2 -16 4 -5 8 -11 7 -21 -1 -11
-9 -15 -8 -19 2 -3 8 -23 15 -48 16 -54 4 -69 6 -86 17 -10 7 -12 5 -6 -3 6
-10 3 -11 -15 -1 -12 6 -28 9 -36 6 -8 -3 -14 0 -14 7 0 8 -4 6 -10 -3 -5 -8
-10 -10 -10 -4 0 6 -22 10 -54 10 -30 -1 -52 2 -50 6 3 4 -9 6 -25 4 -18 -2
-31 1 -31 8 0 6 -5 4 -10 -4 -6 -9 -10 -11 -10 -3 0 7 -7 10 -16 6 -9 -3 -20
0 -25 8 -6 10 -9 10 -9 2 0 -7 -5 -13 -11 -13 -5 0 -7 4 -4 10 4 7 -3 7 -19 0
-18 -7 -26 -6 -26 1 0 8 -4 8 -14 0 -9 -8 -16 -9 -21 -2 -8 14 -593 12 -601
-1 -4 -6 -10 -5 -15 3 -7 11 -9 11 -9 -1 0 -11 -2 -12 -8 -2 -5 7 -12 9 -16 5z"/>
<path d="M10650 10245 c0 -6 -49 -10 -126 -10 -69 0 -131 -3 -136 -6 -6 -4
-24 -3 -40 1 -16 5 -26 5 -23 0 3 -5 -19 -8 -50 -7 -30 1 -55 0 -55 -3 0 -3
-15 -5 -32 -6 -18 0 -71 -4 -118 -8 -47 -4 -99 -9 -115 -10 -17 -1 -35 -5 -40
-8 -6 -3 -21 -4 -35 -3 -14 1 -31 -2 -37 -7 -9 -7 -13 -7 -13 1 0 9 -5 9 -21
0 -12 -6 -30 -9 -40 -6 -10 3 -21 1 -24 -3 -3 -5 -13 -7 -23 -6 -9 2 -20 -2
-24 -8 -5 -7 -8 -7 -8 3 0 9 -4 10 -12 4 -7 -6 -20 -10 -28 -10 -15 -1 -97
-12 -135 -19 -33 -6 -89 -14 -110 -17 -11 -1 -23 -6 -27 -12 -5 -6 -8 -5 -8 3
0 8 -5 10 -12 5 -7 -4 -24 -8 -36 -9 -13 0 -28 -7 -33 -15 -7 -12 -9 -12 -9 1
0 9 -3 11 -8 5 -4 -6 -22 -10 -39 -10 -18 1 -33 -2 -33 -6 0 -4 -11 -6 -25 -4
-14 1 -25 -1 -25 -6 0 -4 -8 -8 -17 -8 -25 1 -82 -10 -120 -22 -18 -6 -37 -8
-43 -4 -5 3 -10 2 -10 -4 0 -6 -7 -8 -15 -5 -26 10 -16 -15 13 -33 15 -10 37
-28 48 -40 12 -13 25 -23 30 -23 5 0 25 -15 45 -33 20 -17 56 -48 80 -67 24
-19 56 -47 71 -62 16 -16 40 -35 53 -44 14 -9 22 -20 19 -25 -3 -5 -1 -9 5 -9
11 0 140 -129 213 -212 25 -29 56 -63 67 -75 12 -12 21 -25 21 -28 0 -3 10
-17 23 -31 52 -58 57 -64 50 -64 -5 0 0 -5 10 -11 9 -5 17 -15 17 -22 0 -7 9
-18 20 -25 11 -7 20 -19 20 -27 0 -8 5 -15 11 -15 5 0 16 -15 24 -34 8 -19 19
-36 24 -38 5 -1 11 -10 13 -18 2 -8 11 -21 21 -28 9 -7 15 -17 12 -22 -9 -14
34 -21 90 -15 28 3 70 7 95 8 25 1 48 6 52 11 4 6 14 4 24 -5 15 -12 16 -12 9
0 -6 11 -3 13 13 9 12 -4 24 -3 26 1 3 4 22 7 43 5 21 -1 46 3 57 8 14 8 17 7
11 -3 -6 -8 -4 -10 5 -4 12 8 106 15 235 18 33 1 63 6 67 12 5 6 8 6 8 -3 0
-12 51 -9 73 5 6 4 7 1 2 -6 -6 -10 -3 -11 12 -2 11 6 24 7 27 3 11 -10 40 -8
48 3 5 6 8 5 8 -4 0 -11 3 -11 17 0 10 8 14 9 10 2 -5 -8 0 -11 13 -10 11 1
20 5 20 10 0 4 6 5 13 0 12 -8 38 -10 170 -12 47 -1 66 -4 61 -12 -4 -7 1 -7
16 1 18 10 24 9 31 -1 7 -11 9 -11 9 1 0 9 3 11 8 4 4 -6 23 -11 42 -12 81 -3
100 -5 100 -11 0 -4 15 -7 33 -8 53 -2 97 -8 97 -13 0 -3 19 -6 42 -8 22 -1
46 -6 52 -10 6 -3 16 -7 21 -8 6 -1 24 -5 42 -8 18 -3 43 -10 56 -15 14 -6 28
-7 31 -4 3 4 6 2 6 -4 0 -5 6 -10 13 -11 41 -3 127 -33 127 -43 0 -6 7 -9 15
-6 8 4 17 2 20 -3 4 -6 15 -10 26 -10 10 0 19 -5 19 -11 0 -5 5 -7 10 -4 6 3
10 1 10 -5 0 -7 7 -10 15 -6 8 3 15 1 15 -4 0 -6 7 -10 15 -10 8 0 15 -5 15
-11 0 -5 4 -8 9 -4 5 3 16 -1 24 -9 8 -8 17 -12 21 -9 3 4 6 1 6 -6 0 -7 5 -9
10 -6 6 3 10 2 10 -3 0 -5 14 -15 30 -22 17 -7 30 -17 30 -22 0 -5 4 -7 9 -4
5 3 11 -1 15 -9 3 -8 10 -15 16 -15 19 0 136 -110 195 -184 17 -20 35 -43 40
-50 20 -24 76 -126 69 -126 -3 0 4 -13 15 -29 11 -15 18 -31 14 -34 -3 -4 -1
-13 5 -20 7 -8 9 -17 5 -20 -3 -4 -2 -7 3 -7 5 0 11 -8 12 -17 3 -31 7 -48 15
-60 4 -6 3 -15 -3 -18 -8 -5 -7 -12 2 -22 7 -9 13 -28 13 -44 0 -15 4 -31 7
-35 4 -4 3 -14 -2 -24 -5 -10 -6 -20 -3 -24 12 -12 12 -36 0 -36 -8 0 -8 -3
-2 -8 11 -7 15 -82 5 -82 -4 0 -9 -63 -10 -127 0 -12 -5 -25 -10 -28 -6 -3 -7
-18 -4 -32 4 -15 3 -24 -2 -20 -5 3 -10 -7 -11 -21 -1 -25 -9 -64 -13 -69 -2
-2 -3 -6 -4 -10 -11 -44 -40 -131 -48 -140 -6 -7 -7 -13 -3 -13 4 0 1 -10 -7
-22 -8 -13 -18 -35 -22 -50 -3 -16 -11 -28 -17 -28 -6 0 -8 -4 -5 -8 3 -5 -1
-20 -9 -35 -8 -15 -11 -27 -7 -27 4 0 2 -4 -3 -8 -6 -4 -21 -29 -35 -57 -14
-27 -29 -53 -33 -56 -5 -3 -9 -9 -9 -12 0 -17 -11 -47 -18 -47 -4 0 -15 -19
-26 -42 -10 -24 -25 -48 -34 -55 -8 -7 -12 -13 -8 -13 4 0 0 -9 -10 -20 -9
-12 -16 -23 -14 -25 1 -3 -7 -15 -18 -27 -39 -44 -50 -58 -50 -63 -1 -15 -15
-41 -27 -48 -7 -4 -13 -12 -13 -17 0 -10 -27 -44 -62 -82 -12 -12 -14 -18 -5
-18 6 -1 1 -7 -13 -15 -14 -8 -21 -14 -16 -15 6 0 2 -6 -9 -13 -10 -8 -14 -17
-9 -20 6 -3 24 10 41 29 16 19 28 34 26 34 -3 0 10 15 29 34 18 19 47 51 63
71 17 20 37 45 47 55 9 10 14 21 11 24 -4 3 1 6 11 6 9 0 14 5 11 10 -3 6 1
10 10 10 9 0 14 4 11 8 -2 4 13 27 35 50 21 24 39 46 39 50 0 4 13 21 28 37
15 17 31 38 35 48 4 11 12 15 18 11 7 -4 9 -3 6 3 -4 6 4 22 18 37 13 15 24
29 24 32 -1 3 11 19 25 35 14 16 26 33 26 39 0 5 4 10 9 10 5 0 12 11 15 25 4
14 11 25 16 25 6 0 15 11 20 25 5 14 14 25 20 25 6 0 8 5 5 10 -3 6 -1 10 4
10 6 0 11 7 11 15 0 8 4 15 10 15 5 0 12 11 16 25 3 14 10 25 14 25 5 0 21 25
36 55 16 30 32 55 36 55 4 0 8 6 8 14 0 7 7 19 15 26 8 7 15 18 15 26 0 7 11
30 25 50 14 20 22 40 19 45 -3 5 -1 9 5 9 5 0 15 16 21 35 6 19 16 33 21 29 5
-3 9 -2 8 3 -1 4 0 11 1 16 1 4 3 10 4 15 1 4 7 17 14 28 6 12 9 24 6 26 -2 3
2 11 11 18 8 7 15 21 15 31 0 11 5 19 12 19 6 0 8 3 5 7 -4 3 -2 12 4 20 6 7
8 13 4 13 -4 0 -2 7 5 15 7 8 9 15 4 15 -5 0 -3 4 4 9 7 4 14 18 15 29 1 12 5
22 10 22 5 0 7 6 4 14 -3 8 -2 16 4 18 5 2 12 16 15 32 3 16 9 37 15 48 5 10
7 18 3 18 -3 0 -2 6 4 13 6 6 10 14 10 17 0 3 6 25 13 50 7 25 14 52 15 60 1
8 5 29 9 45 4 17 8 39 10 50 2 11 4 20 5 20 2 0 3 11 4 25 1 14 5 31 9 38 5 6
5 12 0 12 -4 0 -1 5 7 10 8 5 10 10 4 10 -6 0 -11 7 -11 15 0 8 5 15 10 15 5
0 4 6 -2 14 -8 10 -9 16 -1 21 16 10 14 285 -2 285 -9 0 -8 4 2 10 13 9 13 11
0 20 -13 9 -13 10 0 10 10 0 11 3 4 8 -6 4 -10 19 -10 35 1 15 -1 27 -4 27 -3
0 -6 8 -7 18 -3 43 -8 62 -15 62 -4 0 -8 5 -8 11 0 5 5 7 10 4 6 -4 5 5 -2 19
-6 14 -15 26 -19 26 -4 0 -5 9 -2 20 3 11 1 20 -4 20 -5 0 -10 6 -11 13 -1 12
-3 21 -17 65 -4 12 -12 22 -17 22 -6 0 -8 6 -5 14 3 8 -2 22 -11 33 -9 10 -18
25 -20 33 -2 8 -9 18 -15 22 -7 4 -7 8 -2 8 6 0 2 5 -8 11 -9 6 -15 14 -12 20
4 5 1 9 -4 9 -6 0 -11 7 -11 15 0 8 -5 15 -12 15 -6 0 -9 3 -5 6 3 4 1 12 -6
19 -23 24 -57 65 -57 69 0 9 -136 142 -180 176 -24 19 -52 43 -62 53 -10 9
-22 17 -26 17 -5 0 -19 9 -32 20 -13 11 -29 20 -35 20 -7 0 -16 7 -19 16 -4 9
-9 14 -13 11 -3 -4 -17 3 -31 13 -13 11 -29 20 -35 20 -6 0 -18 7 -28 16 -9 8
-26 16 -38 17 -11 1 -23 7 -25 14 -3 7 -17 13 -31 13 -14 0 -25 4 -25 9 0 9
-63 35 -85 36 -5 0 -13 4 -16 8 -3 5 -12 10 -20 11 -8 2 -25 8 -39 13 -14 6
-28 9 -32 6 -5 -2 -8 0 -8 5 0 9 -38 20 -82 25 -10 1 -18 4 -18 7 0 4 -6 7
-12 8 -7 0 -24 3 -38 7 -14 3 -32 8 -40 10 -8 2 -17 4 -20 6 -3 1 -9 3 -15 4
-5 1 -28 7 -50 13 -22 6 -51 12 -65 14 -14 2 -29 6 -35 9 -5 3 -25 6 -44 8
-18 1 -41 5 -50 9 -9 4 -33 7 -53 7 -21 0 -38 4 -38 8 0 5 -5 5 -11 1 -6 -3
-15 0 -20 7 -6 9 -9 10 -9 2 0 -8 -9 -9 -27 -4 -16 4 -34 6 -42 3 -8 -3 -11 0
-7 7 5 8 0 8 -18 1 -14 -5 -26 -6 -26 -2 0 4 -12 7 -27 6 -16 -1 -36 3 -45 8
-12 6 -18 5 -18 -2 0 -6 -5 -8 -10 -5 -6 3 -40 8 -78 11 -37 3 -75 7 -86 10
-13 4 -16 2 -11 -6 5 -9 2 -10 -11 -3 -11 5 -86 9 -169 9 -90 -1 -153 3 -157
9 -5 7 -8 7 -8 0z"/>
<path d="M6630 10065 c-7 -8 -9 -15 -4 -15 5 0 0 -7 -11 -16 -11 -8 -19 -17
-17 -19 4 -8 -46 -103 -58 -110 -6 -4 -8 -11 -5 -16 4 -5 1 -9 -6 -9 -7 0 -9
-3 -6 -7 4 -3 3 -11 -2 -17 -23 -29 -59 -104 -53 -111 4 -5 1 -5 -5 -1 -12 6
-18 -5 -14 -26 0 -5 -3 -8 -9 -8 -6 0 -10 -7 -10 -15 0 -8 -5 -15 -11 -15 -5
0 -8 -4 -5 -9 3 -5 0 -14 -8 -20 -8 -7 -17 -23 -20 -36 -4 -14 -11 -25 -17
-25 -6 0 -8 -4 -5 -9 3 -5 -3 -20 -14 -34 -11 -14 -20 -29 -20 -35 0 -5 -9
-21 -20 -34 -10 -14 -17 -28 -14 -30 2 -3 -2 -11 -11 -18 -8 -7 -15 -18 -15
-25 0 -6 -9 -22 -20 -35 -11 -12 -17 -26 -15 -30 3 -4 -2 -13 -10 -20 -8 -7
-12 -16 -9 -21 3 -5 1 -9 -4 -9 -6 0 -15 -13 -21 -30 -5 -16 -15 -30 -20 -30
-6 0 -10 -3 -9 -7 2 -10 -21 -66 -30 -73 -4 -3 -20 -32 -37 -65 -16 -33 -33
-61 -37 -63 -5 -2 -8 -10 -8 -18 0 -8 -5 -14 -11 -14 -5 0 -8 -4 -4 -9 3 -5
-1 -16 -9 -24 -8 -8 -12 -17 -9 -21 4 -3 1 -6 -6 -6 -8 0 -11 -7 -7 -15 3 -8
2 -15 -3 -15 -4 0 -30 -40 -57 -90 -26 -49 -52 -90 -56 -90 -4 0 -5 -6 -2 -13
2 -7 -4 -24 -16 -37 -11 -13 -20 -29 -20 -37 0 -7 -5 -13 -12 -13 -6 0 -9 -3
-5 -6 3 -4 -1 -13 -9 -21 -8 -8 -12 -18 -9 -23 3 -4 -2 -13 -10 -20 -8 -7 -15
-19 -15 -26 0 -8 -5 -14 -12 -14 -6 0 -9 -3 -5 -6 3 -4 0 -13 -8 -21 -8 -8
-15 -24 -15 -35 0 -12 -3 -18 -7 -15 -3 4 -15 -12 -25 -35 -11 -23 -24 -46
-31 -50 -7 -4 -9 -8 -4 -8 4 0 -4 -18 -18 -40 -14 -22 -25 -44 -25 -50 0 -5
-5 -10 -11 -10 -5 0 -8 -4 -4 -9 3 -5 0 -15 -7 -23 -7 -7 -31 -48 -53 -91 -22
-42 -44 -77 -48 -77 -5 0 -5 -4 -2 -10 3 -5 1 -10 -4 -10 -6 0 -10 -3 -9 -7 3
-13 -35 -83 -44 -83 -5 0 -6 -4 -3 -10 3 -5 1 -10 -5 -10 -6 0 -8 -4 -5 -10 3
-5 1 -10 -5 -10 -6 0 -9 -4 -6 -9 4 -5 3 -11 -1 -13 -12 -5 -55 -88 -46 -88 4
0 0 -5 -10 -11 -9 -6 -15 -14 -12 -20 4 -5 1 -9 -5 -9 -6 0 -8 -4 -5 -10 3 -5
3 -10 -2 -10 -10 0 -43 -57 -43 -76 0 -8 -4 -14 -8 -14 -10 0 -37 -50 -34 -62
1 -5 -3 -8 -9 -8 -5 0 -8 -4 -5 -9 3 -5 -1 -14 -9 -21 -8 -7 -13 -16 -10 -20
3 -4 -2 -11 -11 -14 -8 -3 -12 -10 -9 -16 3 -5 1 -10 -4 -10 -6 0 -11 -9 -11
-20 0 -11 -4 -20 -8 -20 -5 0 -16 -18 -26 -40 -10 -22 -22 -40 -27 -40 -6 0
-8 -4 -4 -9 3 -5 0 -15 -7 -23 -7 -7 -14 -20 -16 -28 -2 -8 -10 -21 -19 -27
-9 -7 -13 -13 -9 -13 5 0 3 -7 -4 -15 -7 -8 -9 -15 -4 -15 4 0 0 -6 -11 -13
-10 -8 -15 -19 -11 -25 4 -7 3 -12 -1 -12 -9 0 -48 -67 -48 -82 0 -5 -5 -12
-10 -16 -6 -4 -19 -26 -30 -49 -11 -24 -24 -43 -28 -43 -5 0 -6 -4 -2 -9 3 -5
-2 -17 -11 -25 -8 -9 -12 -16 -8 -16 4 0 1 -6 -8 -12 -9 -7 -18 -22 -20 -33
-2 -11 -11 -29 -20 -39 -10 -11 -18 -26 -18 -33 0 -7 -4 -13 -10 -13 -5 0 -10
-3 -9 -7 2 -16 -14 -53 -22 -53 -5 0 -8 -3 -7 -7 3 -13 -24 -63 -31 -58 -4 2
-8 -6 -8 -18 -1 -12 -10 -28 -20 -35 -10 -7 -17 -15 -16 -17 4 -11 -10 -45
-18 -45 -5 0 -9 -8 -9 -19 0 -10 -7 -24 -15 -31 -8 -7 -15 -17 -15 -22 0 -6
-9 -22 -20 -38 -11 -15 -17 -30 -13 -34 3 -3 1 -6 -5 -6 -7 0 -12 -4 -12 -9 0
-5 -16 -38 -36 -72 -19 -35 -36 -68 -37 -74 -1 -5 -6 -15 -12 -22 -24 -30 -30
-40 -33 -53 -2 -8 -11 -26 -20 -40 -9 -14 -16 -28 -15 -32 2 -3 -4 -12 -12
-18 -8 -7 -15 -19 -15 -26 0 -8 -4 -14 -10 -14 -5 0 -9 -3 -8 -7 3 -13 -25
-63 -34 -63 -5 0 -7 -4 -4 -8 3 -5 -6 -25 -19 -44 -13 -20 -21 -38 -18 -42 4
-3 1 -6 -5 -6 -7 0 -12 -7 -12 -15 0 -8 -5 -15 -11 -15 -5 0 -7 -4 -4 -10 3
-5 1 -10 -6 -10 -7 0 -9 -3 -6 -6 4 -4 -3 -20 -14 -35 -11 -16 -17 -29 -12
-29 4 0 3 -4 -2 -8 -14 -9 -68 -102 -60 -102 4 0 -1 -7 -9 -16 -9 -8 -14 -20
-11 -25 4 -5 2 -9 -2 -9 -5 0 -22 -25 -38 -55 -15 -30 -33 -55 -38 -55 -5 0
-7 -7 -3 -15 3 -8 1 -15 -5 -15 -6 0 -7 -4 -4 -10 3 -5 2 -10 -3 -10 -5 0 -12
-8 -15 -17 -7 -23 -39 -76 -50 -84 -5 -3 -9 -10 -9 -15 -1 -16 -12 -38 -35
-73 -12 -18 -20 -37 -17 -42 3 -5 2 -9 -3 -9 -4 0 -17 -12 -27 -27 -11 -14
-14 -23 -7 -19 7 5 2 -8 -11 -28 -13 -20 -28 -36 -33 -36 -6 0 -19 17 -30 38
-11 20 -24 42 -30 49 -5 7 -15 19 -22 27 -6 7 -9 17 -6 20 4 3 1 6 -5 6 -7 0
-12 9 -12 20 0 11 -7 20 -15 20 -8 0 -14 3 -13 8 1 8 -13 45 -21 52 -3 3 -19
29 -34 58 -64 118 -95 186 -91 194 3 4 1 8 -5 8 -10 0 -27 38 -23 53 1 4 -3 7
-8 7 -6 0 -10 12 -10 26 0 14 -4 23 -10 19 -5 -3 -10 0 -10 7 0 7 -4 20 -10
28 -7 12 -16 8 -46 -23 -21 -20 -41 -37 -46 -37 -5 0 -7 -3 -5 -7 3 -5 -1 -14
-9 -21 -8 -7 -14 -9 -14 -5 0 4 -10 -7 -22 -24 -13 -16 -27 -32 -33 -34 -5 -2
-9 -7 -8 -11 2 -5 -5 -8 -14 -8 -9 0 -14 -2 -11 -5 3 -3 -24 -35 -59 -70 -36
-36 -63 -65 -61 -65 3 0 -18 -24 -46 -53 -46 -49 -75 -81 -143 -162 -13 -15
-23 -31 -23 -36 0 -6 -4 -7 -10 -4 -5 3 -10 2 -10 -4 0 -5 -6 -16 -13 -23 -7
-7 -24 -29 -37 -48 -13 -19 -35 -45 -47 -57 -13 -13 -21 -23 -18 -23 3 0 -2
-13 -11 -29 -10 -17 -21 -28 -26 -25 -4 3 -8 -4 -8 -16 0 -12 -4 -19 -9 -15
-6 3 -17 -10 -26 -28 -9 -19 -25 -44 -35 -55 -11 -12 -20 -23 -20 -26 0 -3
-13 -25 -30 -49 -16 -25 -30 -50 -30 -56 0 -6 -3 -11 -7 -11 -5 0 -13 -11 -20
-25 -6 -14 -8 -25 -5 -25 4 0 13 -15 21 -33 8 -17 17 -34 20 -37 12 -10 71
-111 71 -121 0 -6 5 -7 10 -4 6 3 10 -3 10 -14 0 -10 4 -21 8 -23 5 -1 26 -30
47 -63 22 -33 45 -64 52 -68 7 -4 13 -14 13 -21 0 -7 11 -24 24 -38 12 -14 26
-33 29 -42 4 -9 11 -16 17 -16 5 0 10 -5 10 -11 0 -7 10 -21 23 -33 12 -11 24
-25 26 -31 5 -13 71 -95 93 -116 10 -9 18 -19 18 -23 0 -3 20 -26 44 -51 25
-25 43 -45 40 -45 -3 0 18 -23 45 -51 28 -29 51 -56 51 -61 0 -5 4 -6 10 -3 5
3 10 1 10 -5 0 -14 87 -99 95 -92 3 3 5 1 5 -5 0 -11 56 -67 138 -140 24 -21
58 -51 75 -68 18 -16 52 -46 77 -65 24 -19 52 -42 61 -50 36 -33 58 -48 63
-43 3 4 6 -1 6 -10 0 -9 7 -17 15 -17 8 0 15 -4 15 -10 0 -5 6 -10 14 -10 8 0
16 -3 18 -8 6 -15 85 -71 92 -65 3 3 6 -1 6 -11 0 -9 4 -14 10 -11 6 3 10 1
10 -4 0 -6 16 -17 35 -25 19 -8 38 -22 41 -30 3 -9 10 -13 15 -10 5 3 9 0 9
-6 0 -6 5 -8 10 -5 6 3 10 2 10 -2 0 -5 22 -22 50 -38 27 -16 50 -33 50 -38 0
-4 4 -6 9 -2 6 3 13 0 18 -7 4 -7 23 -21 40 -30 29 -15 34 -15 48 -2 14 14 19
29 16 47 0 4 4 7 10 7 5 0 7 5 4 10 -3 6 -2 10 3 10 5 0 9 7 10 15 1 8 3 22 4
30 1 8 7 16 14 19 8 3 11 12 8 21 -4 8 -1 15 6 15 7 0 10 6 7 14 -3 8 -2 16 4
18 5 2 11 14 14 27 2 12 9 29 15 35 5 7 7 16 3 19 -3 4 0 7 7 7 7 0 10 3 7 7
-4 3 -2 12 4 20 6 7 8 13 5 13 -4 0 0 12 8 28 15 25 32 67 35 84 1 5 10 24 21
44 11 19 18 39 15 45 -4 5 -1 9 5 9 7 0 10 7 6 15 -3 8 -1 15 4 15 5 0 12 10
15 23 7 22 20 53 51 123 9 20 17 44 19 53 1 9 7 15 13 14 5 -1 8 7 5 17 -3 11
-1 20 5 20 6 0 9 8 8 18 -2 9 1 20 6 23 5 3 11 16 13 29 2 13 10 27 17 32 7 4
10 8 6 8 -4 0 -1 12 7 27 8 15 12 30 9 35 -3 4 -2 8 3 8 4 0 13 11 20 25 6 14
7 23 3 20 -12 -7 19 56 39 79 13 16 13 18 1 11 -13 -8 -13 -7 -1 8 7 9 10 17
5 17 -5 0 -3 4 4 9 7 4 15 14 16 22 2 8 8 28 15 44 7 17 13 38 14 47 1 9 4 15
8 12 4 -2 10 9 14 26 4 16 11 30 15 30 5 0 7 6 4 14 -3 8 0 17 5 21 6 3 9 11
6 16 -4 5 -1 9 5 9 6 0 9 4 5 9 -3 5 -1 12 5 16 6 4 8 11 5 16 -4 5 -1 9 5 9
7 0 10 6 7 14 -3 8 -1 16 5 18 6 2 13 15 15 28 2 13 8 27 14 31 6 3 10 9 10
13 -2 17 12 66 19 66 7 0 21 39 18 50 -1 3 6 19 15 35 17 30 35 75 34 85 0 3
6 16 13 30 8 14 15 27 15 30 0 3 6 15 13 26 6 12 8 24 5 28 -3 3 -2 6 4 6 6 0
14 12 18 27 3 15 14 43 22 62 19 42 17 38 27 74 5 15 13 27 19 27 6 0 7 3 4 6
-3 4 -1 16 5 28 7 11 13 28 14 36 2 8 7 16 13 18 5 2 7 10 4 18 -3 8 -1 14 4
14 5 0 9 10 10 22 1 11 6 24 10 27 4 3 9 13 11 21 2 8 14 36 27 62 12 27 20
46 16 43 -4 -2 5 23 21 55 15 33 28 67 28 75 0 8 5 15 10 15 6 0 10 9 10 19 0
11 5 23 10 26 6 3 10 17 10 31 0 14 4 22 10 19 6 -3 7 1 4 9 -3 9 -1 16 5 16
6 0 10 3 10 8 -1 4 0 10 1 15 1 4 3 10 4 15 1 4 7 17 14 28 6 12 8 24 5 28 -3
3 -2 6 4 6 6 0 14 7 17 16 4 10 2 13 -7 8 -6 -4 -4 2 6 13 9 11 14 23 10 27
-4 4 -1 11 7 16 8 5 16 14 16 20 1 5 2 16 3 24 0 8 7 21 14 28 6 7 14 22 15
33 2 11 9 23 15 27 7 4 9 8 4 8 -4 0 -1 13 7 29 9 16 12 31 9 35 -4 3 -1 6 6
6 8 0 11 7 7 15 -11 29 16 15 60 -31 24 -26 44 -44 44 -41 0 3 29 -24 65 -60
36 -36 65 -61 65 -57 0 4 11 -7 25 -26 14 -19 25 -31 25 -28 0 5 75 -64 171
-157 20 -19 41 -35 48 -35 7 0 9 -5 6 -11 -4 -6 2 -13 14 -16 11 -3 18 -9 15
-14 -3 -5 -2 -9 3 -9 4 0 37 -27 72 -60 35 -33 68 -60 73 -60 4 0 8 -6 8 -14
0 -12 20 -26 37 -26 3 0 3 11 1 25 -3 13 -1 22 3 19 10 -6 10 -4 14 41 4 38
13 76 20 83 2 3 -1 12 -8 20 -9 13 -9 14 1 8 7 -4 12 -2 13 6 0 7 2 20 4 28 2
8 6 32 10 54 4 21 9 48 12 60 3 11 6 30 8 41 2 11 4 21 5 23 2 1 4 7 5 12 1 6
4 11 5 13 2 2 9 60 12 95 1 6 5 12 9 12 5 0 7 14 5 30 -2 16 0 30 4 30 5 0 7
11 5 25 -1 14 2 25 7 25 6 0 8 7 5 15 -4 8 -2 17 2 20 5 3 8 23 7 44 0 22 2
37 7 34 4 -2 7 4 8 14 0 10 2 25 4 33 4 13 14 67 19 95 1 6 4 15 7 20 4 6 5
18 4 28 -2 9 0 17 3 17 4 0 8 12 9 28 1 23 7 56 13 72 1 3 3 10 4 15 10 61 20
103 27 117 6 11 5 18 -4 21 -9 3 -8 8 3 22 8 10 15 32 16 49 1 17 6 42 11 56
6 14 9 29 6 33 -3 4 -1 13 4 20 5 7 10 26 12 42 2 17 8 36 13 43 7 8 7 12 -2
12 -10 0 -10 3 0 15 6 8 9 18 6 24 -4 5 1 17 10 25 8 9 11 16 6 16 -5 0 -3 23
4 51 8 29 11 56 8 60 -3 5 -1 9 5 9 5 0 8 9 6 20 -2 11 1 20 6 20 6 0 7 9 4
20 -4 11 -2 20 4 20 6 0 11 5 11 11 0 5 -6 7 -12 3 -10 -6 -10 -5 -1 8 7 8 10
18 6 21 -3 4 -2 7 4 7 5 0 9 14 8 30 -1 17 1 30 4 30 4 0 7 14 7 31 1 17 6 34
11 38 4 3 8 21 8 39 -1 17 2 32 5 32 4 0 6 11 5 25 -2 14 0 25 4 25 4 0 8 6 8
13 3 35 11 78 16 84 4 3 2 12 -5 20 -9 11 -8 13 2 11 8 -2 14 7 16 22 1 14 5
41 9 60 3 19 7 42 7 50 0 8 5 20 10 27 5 7 7 16 4 21 -3 5 0 19 7 33 7 13 12
40 12 61 0 20 4 34 9 31 5 -4 6 4 3 18 -4 15 0 30 11 43 9 11 11 16 5 12 -7
-4 -13 -2 -13 3 0 6 4 11 9 11 5 0 8 11 6 25 -1 14 1 25 5 25 5 0 7 8 6 18 -2
9 2 20 8 24 8 6 8 8 0 8 -8 0 -8 11 2 38 7 20 13 47 14 60 0 23 19 32 21 10 0
-7 3 -22 5 -33 3 -11 6 -36 7 -57 1 -20 6 -34 11 -30 5 3 7 -2 3 -11 -3 -9 -1
-18 6 -21 9 -3 9 -5 0 -5 -10 -1 -10 -8 -2 -28 6 -16 12 -42 13 -59 1 -16 5
-35 9 -40 3 -6 7 -29 8 -52 2 -23 6 -42 9 -42 4 0 7 -6 7 -12 0 -7 3 -33 8
-58 4 -25 8 -53 8 -62 1 -10 4 -18 7 -18 3 0 5 -10 6 -22 0 -13 4 -39 8 -58 5
-19 10 -46 12 -60 1 -14 7 -41 12 -60 5 -19 8 -45 7 -57 -1 -12 2 -20 6 -17 4
2 8 -6 8 -18 0 -13 1 -33 1 -45 0 -13 5 -23 11 -23 6 0 9 -6 6 -13 -3 -7 -1
-33 5 -58 5 -24 11 -57 13 -74 2 -16 4 -30 5 -30 2 0 4 -9 6 -20 2 -11 6 -33
9 -50 3 -16 7 -40 7 -52 1 -13 5 -23 8 -23 3 0 7 -10 8 -22 3 -48 8 -73 15
-85 4 -6 8 -30 9 -52 1 -23 4 -41 8 -41 4 0 7 -7 7 -15 0 -8 -5 -15 -11 -15
-7 0 -8 -3 -1 -8 14 -9 38 -129 29 -144 -5 -7 -3 -8 6 -3 10 6 12 3 8 -13 -4
-12 -3 -22 2 -22 4 0 7 -16 6 -36 -1 -21 4 -38 11 -41 9 -4 10 -10 3 -23 -6
-11 -6 -20 -1 -22 5 -2 10 -19 12 -38 2 -19 5 -39 8 -45 7 -12 10 -30 13 -72
2 -18 5 -33 8 -33 3 0 6 -8 7 -17 1 -10 2 -33 4 -50 1 -18 5 -33 8 -33 3 0 7
-19 8 -42 2 -24 7 -44 13 -46 6 -2 6 -10 0 -22 -6 -12 -6 -20 0 -22 5 -2 12
-25 14 -51 3 -26 8 -52 11 -57 3 -5 8 -24 10 -42 1 -18 8 -52 13 -75 5 -24 8
-43 5 -43 -3 0 1 -8 8 -17 12 -15 12 -16 -1 -8 -12 6 -13 5 -2 -6 6 -7 12 -27
12 -44 0 -18 3 -35 8 -39 4 -4 8 -22 9 -39 0 -18 2 -33 3 -34 2 -2 4 -12 5
-23 1 -11 3 -21 5 -22 4 -6 11 -44 13 -73 2 -17 6 -36 11 -43 4 -6 4 -12 -1
-12 -4 0 -1 -5 7 -10 11 -7 11 -10 2 -10 -8 0 -10 -5 -5 -12 4 -7 8 -22 8 -33
0 -11 4 -26 8 -32 5 -7 5 -17 2 -23 -3 -5 -2 -10 2 -10 5 0 8 -15 8 -32 0 -18
3 -38 8 -44 4 -7 8 -28 9 -48 1 -20 5 -36 9 -36 4 0 8 -16 8 -35 3 -57 4 -65
12 -65 4 0 6 -10 4 -21 -3 -12 -1 -27 2 -33 7 -10 12 -43 16 -88 1 -10 5 -18
10 -18 5 0 7 -6 4 -12 -2 -7 0 -21 5 -32 7 -13 7 -16 -1 -12 -6 4 -5 -6 3 -26
7 -18 12 -43 11 -55 -1 -13 1 -23 4 -23 6 0 12 -32 14 -77 1 -13 4 -23 7 -23
3 0 7 -15 8 -32 4 -47 7 -61 15 -75 5 -7 6 -13 2 -13 -3 0 -1 -9 5 -20 8 -15
8 -20 -2 -20 -8 0 -9 -3 -3 -8 12 -9 18 -28 18 -64 0 -16 4 -28 8 -28 4 0 6
-8 4 -17 -1 -10 3 -24 9 -32 9 -12 8 -13 -3 -6 -11 6 -12 5 -5 -6 10 -16 16
-44 17 -76 1 -13 4 -23 7 -23 4 0 7 -6 8 -12 0 -7 2 -30 3 -50 1 -21 5 -38 9
-38 4 0 6 -10 6 -23 -1 -12 0 -26 3 -32 3 -5 6 -16 7 -25 1 -8 4 -28 8 -45 7
-33 18 -91 21 -115 1 -8 6 -23 10 -33 4 -10 5 -21 1 -24 -3 -3 -1 -12 5 -20 9
-10 8 -13 0 -13 -7 0 -9 -5 -6 -10 4 -6 10 -8 13 -6 4 2 7 -11 6 -30 -1 -20 3
-34 10 -34 6 0 4 -5 -4 -10 -8 -5 -10 -10 -4 -10 11 0 11 -2 15 -58 1 -17 5
-32 10 -32 4 0 6 -14 5 -30 -1 -17 1 -30 6 -30 4 0 4 -7 1 -17 -5 -12 -3 -14
7 -8 8 5 11 4 6 -3 -6 -11 -85 16 -112 38 -6 6 -14 7 -17 3 -4 -3 -9 1 -13 10
-3 9 -12 13 -20 10 -8 -3 -14 0 -14 7 0 6 -4 9 -9 5 -5 -3 -16 2 -25 11 -9 8
-20 13 -25 9 -6 -3 -14 3 -20 12 -6 10 -11 14 -11 10 0 -5 -16 0 -36 12 -19
12 -42 21 -50 21 -9 0 -12 5 -8 12 5 8 0 9 -14 6 -12 -4 -22 -3 -22 1 0 8 -71
41 -88 41 -5 0 -12 4 -14 8 -3 9 -93 52 -108 52 -5 0 -10 5 -10 10 0 6 -6 10
-14 10 -13 0 -94 38 -106 50 -3 3 -14 7 -25 8 -11 2 -21 8 -23 13 -2 5 -12 9
-23 9 -10 0 -19 5 -19 10 0 6 -9 10 -20 10 -11 0 -20 5 -20 10 0 6 -7 10 -16
10 -9 0 -41 13 -71 30 -30 16 -59 30 -65 30 -5 0 -22 9 -38 20 -15 11 -30 17
-34 13 -3 -3 -6 -1 -6 5 0 6 -7 9 -17 5 -9 -4 -14 -2 -10 3 3 6 -2 10 -11 11
-15 1 -17 -17 -17 -190 0 -106 4 -198 9 -206 6 -9 5 -12 0 -8 -11 7 -12 -182
-1 -199 3 -6 3 -14 -1 -18 -4 -4 -7 -203 -7 -442 l0 -435 198 2 c139 1 197 5
197 13 0 7 3 7 8 1 10 -15 28 -16 57 -5 17 7 25 6 25 -1 0 -8 4 -8 14 0 10 8
16 9 21 1 4 -6 13 -7 23 -1 9 5 45 8 79 7 33 0 59 2 57 5 -2 4 13 7 34 8 57 2
99 8 110 15 6 3 13 0 15 -6 4 -10 6 -10 6 -1 1 7 8 10 18 6 11 -5 14 -3 8 6
-6 10 -3 11 14 2 12 -7 27 -8 34 -4 6 4 26 9 42 10 17 0 30 2 30 3 0 2 16 4
35 5 19 2 35 4 35 5 0 2 36 9 73 13 18 3 35 7 39 11 3 3 13 0 21 -7 13 -9 14
-9 8 1 -7 11 23 18 61 13 6 -1 14 3 18 9 3 5 17 10 31 10 14 0 35 5 46 11 16
8 19 8 13 -1 -6 -9 -3 -9 12 -1 11 6 23 7 27 4 3 -3 6 0 6 7 0 7 2 11 6 8 3
-3 22 -2 42 3 79 20 88 22 105 23 9 0 17 3 17 6 0 4 6 7 13 8 6 0 23 3 37 7
14 3 32 8 40 10 8 2 17 4 20 5 3 1 8 2 13 1 4 0 7 3 7 9 0 5 6 7 14 4 8 -3 17
-1 20 5 4 6 13 8 21 4 8 -3 15 0 15 6 0 6 6 8 14 5 8 -3 17 0 21 5 3 6 11 9
16 6 5 -4 9 -1 9 5 0 6 10 10 23 9 12 -2 32 2 43 9 12 6 24 8 28 5 3 -3 6 0 6
7 0 7 3 10 7 7 3 -4 12 -2 20 4 7 6 13 8 13 4 0 -4 7 -2 15 5 8 6 18 9 24 6 5
-3 11 -2 13 3 1 5 12 11 23 13 11 1 26 8 33 15 7 7 19 10 27 7 8 -4 15 -1 15
5 0 6 3 10 8 9 10 -2 28 5 156 61 37 17 73 28 79 24 6 -3 7 -1 3 5 -6 11 6 16
27 13 4 0 7 3 7 9 0 6 3 9 8 8 15 -3 62 22 62 34 0 9 3 9 10 -2 8 -12 10 -12
16 3 4 10 13 16 20 13 7 -3 17 0 21 7 5 7 44 30 88 51 44 22 83 45 87 50 5 7
8 7 8 1 0 -5 7 -1 16 10 8 11 16 19 17 18 5 -6 47 10 47 18 0 5 7 9 15 9 8 0
15 5 15 11 0 5 5 7 10 4 6 -3 10 -1 10 4 0 6 7 11 15 11 8 0 15 3 15 8 0 4 9
12 19 17 61 31 131 77 131 86 0 5 4 8 8 5 5 -3 20 6 35 20 15 14 27 21 27 17
0 -4 10 3 21 17 11 14 18 18 14 10 -4 -10 -1 -9 8 3 8 9 19 17 26 17 6 0 11 3
11 8 0 4 17 18 37 32 38 25 51 36 98 78 14 12 25 20 25 16 0 -4 14 7 30 25 17
17 34 31 38 31 5 0 23 16 40 36 18 20 32 32 32 27 0 -4 5 0 11 10 5 9 17 17
25 17 8 0 12 5 9 11 -4 6 2 13 14 16 11 3 19 8 17 12 -2 3 2 12 10 19 8 7 14
11 14 9 0 -2 35 30 77 72 43 42 77 79 76 83 -2 4 6 10 17 13 11 4 20 13 20 21
0 8 5 12 10 9 6 -3 10 -1 10 6 0 6 17 27 37 45 20 19 34 34 31 34 -4 0 12 19
33 43 22 23 46 49 53 57 6 8 32 40 56 70 25 30 49 58 55 62 7 5 7 8 0 8 -6 0
-6 3 0 8 21 15 74 89 68 96 -3 3 -1 6 5 6 7 0 31 29 53 65 23 36 46 65 51 65
5 0 7 4 4 8 -3 5 3 18 14 29 10 12 17 23 14 25 -2 3 6 16 18 30 13 14 24 32
26 39 2 8 8 16 13 17 5 2 7 8 3 13 -3 5 0 9 6 9 6 0 9 4 6 9 -3 5 1 12 10 15
8 3 13 10 10 15 -4 5 -2 11 3 13 5 1 11 10 13 18 3 14 6 19 34 53 6 7 10 20 8
30 -1 9 2 15 8 14 6 -1 12 6 13 15 2 10 13 32 26 49 13 19 17 29 8 25 -9 -5
-8 -3 2 6 9 7 20 24 24 38 4 14 16 37 27 52 11 16 16 28 12 28 -4 0 1 10 12
22 10 12 13 18 7 14 -9 -5 -11 -2 -7 8 3 9 11 16 17 16 6 0 8 3 4 6 -3 3 2 20
12 37 9 18 23 51 30 74 8 23 17 40 22 38 4 -3 6 3 5 12 -2 10 3 27 11 39 7 11
10 24 6 27 -3 4 -1 7 6 7 7 0 10 4 6 9 -3 5 -1 12 5 16 6 4 8 10 5 15 -3 5 -1
11 5 15 6 4 8 11 5 16 -4 5 -2 9 2 9 5 0 9 10 10 22 1 11 6 24 10 27 4 3 8 12
9 19 3 37 5 43 13 38 4 -3 7 6 5 19 -1 14 2 25 7 25 5 0 8 3 7 8 -1 4 6 34 17
67 18 60 21 69 23 93 1 7 5 11 10 9 4 -3 6 9 6 26 -1 18 3 38 9 45 5 6 7 12 3
12 -3 0 1 16 9 37 8 20 13 38 11 41 -3 2 -1 15 5 29 10 27 20 73 24 118 2 16
8 31 14 33 9 3 9 7 0 18 -7 9 -8 14 -1 14 6 0 9 8 7 18 -1 9 0 22 4 27 3 6 7
21 7 35 1 14 3 27 4 30 3 8 22 137 22 157 0 5 4 18 9 31 6 14 5 22 -2 22 -8 0
-8 4 -1 13 6 7 9 25 8 40 -2 15 0 30 4 32 5 3 7 13 5 23 -1 9 2 23 8 30 6 8 6
12 -1 12 -6 0 -9 10 -6 23 3 12 7 46 9 75 1 29 6 56 9 59 3 3 1 12 -5 20 -9 9
-8 13 0 13 6 0 11 7 11 16 0 9 -5 12 -12 8 -10 -6 -10 -4 -2 7 7 9 10 106 9
294 -1 154 -3 280 -4 280 -1 0 -4 40 -6 88 -3 49 -10 97 -15 108 -9 15 -7 21
5 26 13 4 14 8 4 14 -7 4 -14 30 -15 61 -1 29 -3 53 -4 53 -4 0 -11 43 -12 78
-1 20 -5 37 -9 37 -3 0 -7 21 -7 46 -1 25 -7 53 -14 62 -11 13 -11 14 1 7 11
-6 12 -5 5 6 -9 15 -12 29 -16 72 -1 15 -5 27 -8 27 -3 0 -7 10 -8 23 -2 31
-7 56 -21 106 -7 23 -10 45 -8 48 3 2 -1 16 -8 30 -7 14 -11 32 -8 39 3 8 0
14 -6 14 -6 0 -11 13 -11 29 0 17 -5 33 -10 36 -6 4 -8 11 -4 16 3 5 0 17 -8
26 -7 9 -12 18 -10 20 1 1 2 4 1 6 -2 7 -11 44 -13 57 -2 8 -6 23 -10 32 -4 9
-9 22 -10 30 -1 7 -8 24 -16 38 -7 14 -12 25 -11 25 5 0 -11 60 -19 70 -3 6
-12 29 -19 53 -11 39 -23 48 -55 43 -4 -1 -14 3 -21 9 -7 6 -17 10 -21 9 -5
-1 -11 0 -14 1 -3 1 -18 3 -35 5 -16 1 -30 3 -30 5 0 1 -24 3 -52 4 -29 1 -55
5 -59 8 -3 3 -19 4 -35 1 -17 -2 -29 0 -29 7 0 6 -5 8 -12 3 -17 -10 -38 -13
-38 -4 0 7 -65 10 -305 10 -252 1 -319 -2 -327 -13 -5 -7 -8 -6 -8 3 0 11 -3
11 -15 1 -12 -10 -15 -10 -15 1 0 9 -3 10 -8 4 -4 -5 -23 -11 -42 -12 -19 -1
-55 -3 -80 -4 -25 -1 -51 -6 -57 -12 -9 -6 -13 -6 -13 2 0 7 -8 8 -23 2 -13
-5 -38 -8 -55 -7 -18 1 -32 -1 -32 -4 0 -3 -12 -6 -27 -6 -28 1 -39 -22 -18
-36 5 -4 10 -11 10 -15 1 -4 15 -36 33 -69 17 -34 28 -64 25 -68 -4 -3 -2 -6
4 -6 12 0 37 -50 34 -67 -1 -7 3 -13 9 -13 6 0 9 -4 6 -9 -4 -5 -1 -11 4 -13
6 -2 12 -13 13 -26 0 -12 5 -22 9 -22 4 0 8 -9 8 -19 0 -11 4 -21 9 -23 6 -1
12 -16 15 -31 3 -16 9 -34 14 -40 5 -7 8 -20 7 -30 -2 -9 1 -15 6 -11 9 5 12
-4 12 -38 0 -10 4 -15 8 -12 8 4 13 -30 7 -39 -2 -2 3 -11 10 -19 7 -9 15 -27
18 -39 3 -13 7 -31 9 -39 2 -8 4 -19 4 -23 1 -5 5 -6 9 -3 4 2 8 -5 9 -17 1
-21 10 -72 13 -72 2 0 10 -36 12 -57 1 -10 5 -18 8 -18 4 0 7 -6 8 -12 1 -17
9 -65 18 -103 4 -16 6 -38 6 -47 0 -10 3 -18 7 -18 6 0 11 -33 14 -87 0 -7 3
-13 7 -13 4 0 6 -12 4 -27 -1 -15 2 -36 8 -46 8 -15 7 -18 -3 -12 -8 5 -10 4
-5 -3 9 -15 17 -50 19 -87 1 -16 6 -36 11 -44 7 -10 6 -12 -3 -6 -10 5 -11 3
-4 -11 5 -11 9 -49 8 -86 0 -38 3 -68 6 -68 8 0 5 -33 -6 -49 -5 -10 -4 -12 3
-7 7 4 12 1 12 -8 0 -9 -6 -16 -12 -16 -9 0 -9 -3 -2 -8 5 -4 10 -40 9 -82 0
-41 3 -80 8 -87 4 -6 3 -14 -2 -17 -6 -4 -7 -14 -4 -23 5 -12 3 -14 -8 -8 -12
7 -12 6 -1 -7 8 -10 10 -32 7 -64 -4 -27 -8 -78 -11 -114 -2 -36 -7 -81 -9
-100 -3 -19 -6 -54 -7 -77 -1 -24 -7 -43 -13 -43 -5 0 -3 -5 5 -10 8 -5 10
-10 4 -10 -7 0 -12 -10 -13 -22 -2 -53 -5 -78 -11 -78 -4 0 -6 -10 -5 -22 1
-13 -3 -29 -9 -37 -8 -12 -8 -13 2 -7 11 6 11 4 3 -10 -11 -21 -42 -147 -44
-181 0 -13 -5 -23 -10 -23 -5 0 -7 -6 -4 -14 3 -8 3 -17 -1 -20 -3 -4 -7 -13
-9 -21 -5 -22 -8 -35 -28 -100 -11 -33 -18 -63 -17 -67 1 -5 -2 -8 -6 -8 -5 0
-9 -6 -10 -12 -5 -44 -16 -78 -23 -78 -5 0 -9 -8 -9 -18 0 -10 -5 -23 -12 -30
-7 -7 -9 -12 -5 -12 4 0 -1 -17 -12 -39 -11 -21 -17 -41 -14 -45 4 -3 1 -6 -5
-6 -7 0 -11 -3 -10 -7 1 -5 -8 -30 -20 -57 -12 -27 -22 -52 -22 -57 0 -5 -4
-9 -10 -9 -5 0 -9 -3 -8 -7 4 -14 -13 -53 -23 -53 -5 0 -8 -3 -7 -7 4 -13 -24
-73 -33 -73 -5 0 -8 -3 -7 -7 2 -13 -15 -47 -31 -61 -13 -11 -13 -12 -1 -7 8
4 6 -1 -4 -9 -11 -9 -16 -16 -12 -16 5 0 3 -7 -4 -15 -7 -8 -9 -15 -4 -15 5 0
1 -5 -9 -11 -9 -6 -15 -14 -12 -20 4 -5 2 -9 -3 -9 -5 0 -17 -18 -28 -40 -10
-22 -22 -40 -25 -40 -4 0 -12 -13 -19 -30 -7 -16 -16 -30 -21 -30 -5 0 -9 -7
-9 -15 0 -7 -7 -18 -16 -23 -9 -5 -16 -13 -16 -18 -1 -19 -11 -34 -19 -28 -5
3 -8 2 -7 -3 3 -8 -51 -91 -81 -124 -24 -27 -36 -42 -55 -72 -10 -15 -22 -24
-27 -21 -5 3 -8 2 -7 -3 4 -13 -26 -53 -39 -53 -7 0 -13 7 -13 15 0 8 -3 15
-8 15 -7 0 -37 60 -35 70 1 3 -5 9 -13 13 -8 5 -12 12 -9 18 4 5 3 9 -2 9 -4
0 -14 15 -22 32 -8 18 -21 41 -29 51 -8 9 -12 17 -8 17 4 0 -2 10 -14 22 -11
12 -20 30 -20 40 0 10 -5 18 -11 18 -5 0 -8 4 -4 9 3 5 -2 16 -10 25 -9 8 -22
31 -30 50 -8 19 -19 38 -25 41 -6 4 -8 11 -5 16 4 5 1 9 -4 9 -6 0 -11 6 -11
13 0 6 -9 23 -20 37 -11 14 -20 33 -20 43 0 9 -4 17 -10 17 -5 0 -10 5 -10 12
0 6 -8 20 -17 31 -13 15 -14 19 -3 13 9 -4 8 -2 -2 7 -10 8 -18 19 -18 26 0 6
-5 11 -11 11 -5 0 -8 4 -5 8 3 5 -6 25 -20 45 -14 20 -22 37 -20 37 3 0 -6 16
-19 36 -14 20 -25 43 -25 50 0 8 -5 14 -11 14 -5 0 -7 5 -4 10 3 6 3 10 -2 10
-4 0 -21 27 -37 60 -16 33 -33 60 -38 60 -5 0 -6 5 -3 10 3 6 1 10 -6 10 -7 0
-9 3 -6 6 4 4 -2 19 -13 34 -11 16 -20 32 -20 37 0 5 -8 18 -17 29 -10 10 -20
28 -21 39 -2 11 -7 22 -11 25 -4 3 -14 20 -22 38 -8 17 -17 32 -21 32 -5 0 -8
7 -8 15 0 9 -5 21 -10 28 -24 28 -59 88 -48 81 6 -4 2 6 -10 23 -12 17 -22 36
-22 42 0 6 -5 11 -11 11 -5 0 -7 5 -4 10 3 6 3 10 -2 10 -4 0 -17 18 -27 40
-11 22 -23 40 -28 40 -4 0 -8 5 -8 11 0 5 6 7 13 3 12 -8 -21 36 -37 47 -5 4
-5 12 -2 18 4 6 1 14 -7 17 -9 3 -18 17 -22 32 -3 14 -14 32 -23 40 -12 9 -13
12 -2 7 13 -6 13 -5 0 7 -8 7 -26 36 -39 63 -14 28 -29 53 -35 57 -7 5 -7 8
-1 8 7 0 7 3 0 8 -5 4 -28 42 -49 85 -22 42 -44 77 -49 77 -6 0 -7 3 -4 7 4 3
3 11 -2 17 -17 22 -82 146 -76 146 3 0 -3 10 -15 22 -11 12 -20 28 -20 35 0 7
-4 13 -9 13 -5 0 -12 13 -16 30 -4 16 -10 32 -15 35 -5 3 -21 30 -36 60 -16
30 -32 55 -36 55 -4 0 -8 9 -8 20 0 11 -4 20 -9 20 -5 0 -11 9 -14 20 -8 31
-10 34 -24 48 -7 7 -13 20 -13 28 0 8 -4 14 -8 14 -4 0 -14 16 -21 35 -7 19
-17 35 -22 35 -6 0 -7 5 -4 10 3 6 1 10 -5 10 -6 0 -8 5 -5 10 3 6 2 10 -3 10
-4 0 -14 16 -22 35 -8 19 -18 35 -23 35 -5 0 -7 6 -4 14 3 8 -1 17 -9 20 -9 3
-12 10 -9 16 3 5 1 10 -4 10 -6 0 -11 7 -11 15 0 8 -5 15 -10 15 -6 0 -10 3
-9 8 2 15 -14 52 -22 52 -5 0 -9 5 -9 11 0 6 -9 24 -21 40 -11 16 -17 29 -13
29 4 0 0 8 -8 18 -8 9 -21 32 -29 50 -8 17 -18 32 -22 32 -5 0 -6 4 -2 9 3 6
-3 14 -12 20 -10 6 -15 11 -10 11 6 0 -49 108 -62 120 -4 3 -7 12 -9 20 -2 8
-8 17 -13 18 -5 2 -7 8 -3 13 3 5 0 9 -5 9 -6 0 -11 6 -11 13 0 6 -15 37 -34
69 -19 31 -32 59 -29 62 4 3 2 6 -4 6 -6 0 -17 15 -24 33 -7 17 -19 38 -26 45
-7 8 -11 18 -8 23 4 5 1 9 -4 9 -6 0 -11 7 -11 15 0 8 -4 15 -10 15 -5 0 -10
9 -10 20 0 11 -4 20 -10 20 -5 0 -10 6 -10 14 0 8 -7 22 -16 30 -8 9 -17 25
-19 36 -2 11 -11 27 -20 36 -8 9 -13 20 -10 25 4 5 2 9 -2 9 -5 0 -23 29 -41
65 -19 35 -38 67 -43 71 -5 3 -7 10 -4 15 4 5 1 9 -5 9 -6 0 -8 5 -5 10 3 6 1
10 -4 10 -6 0 -11 7 -11 15 0 8 -5 15 -11 15 -5 0 -8 4 -4 9 3 5 -1 15 -8 23
-13 14 -34 57 -35 72 0 5 -7 13 -16 18 -9 5 -14 13 -11 19 4 5 2 9 -3 9 -8 0
-20 28 -20 47 0 3 -6 9 -13 14 -7 4 -14 15 -15 25 -2 9 -7 20 -12 23 -5 3 -12
16 -16 28 -4 13 -14 30 -23 38 -8 9 -16 21 -17 29 -1 7 -9 25 -19 39 -9 15
-17 31 -17 36 0 5 -5 11 -10 13 -6 2 -12 13 -13 25 0 12 -4 20 -8 17 -4 -2
-13 12 -20 31 -7 19 -17 35 -22 35 -4 0 -5 5 -2 10 3 6 1 10 -5 10 -6 0 -8 5
-5 10 3 6 3 10 -2 10 -4 0 -19 25 -33 55 -14 30 -28 55 -32 55 -5 0 -8 5 -8
12 0 6 -8 20 -17 31 -13 15 -14 19 -3 13 13 -6 13 -6 0 6 -9 7 -24 32 -34 56
-11 23 -25 47 -33 53 -7 6 -13 19 -13 28 0 10 -9 27 -20 39 -12 12 -18 22 -14
22 3 0 1 6 -5 13 -6 8 -7 18 -3 22 4 5 2 5 -5 2 -7 -5 -16 6 -23 28 -6 19 -16
35 -21 35 -5 0 -9 8 -9 18 0 9 -9 28 -20 42 -11 14 -20 31 -20 38 0 6 -5 12
-11 12 -5 0 -7 5 -4 10 3 6 1 10 -5 10 -6 0 -8 5 -5 10 3 6 1 10 -4 10 -6 0
-11 5 -11 11 0 6 -6 17 -14 24 -12 12 -16 12 -26 0z"/>
<path d="M3260 7290 c0 -6 -3 -9 -7 -7 -5 1 -17 -7 -29 -18 -35 -34 -87 -75
-97 -75 -4 0 -5 -4 -2 -10 3 -5 -1 -10 -9 -10 -9 0 -16 -4 -16 -10 0 -5 -4
-10 -10 -10 -5 0 -25 -15 -44 -34 -19 -19 -37 -32 -40 -29 -3 4 -6 -1 -6 -11
0 -9 -5 -14 -10 -11 -6 3 -13 -1 -16 -9 -3 -8 -14 -18 -25 -21 -11 -4 -17 -11
-14 -16 4 -5 1 -9 -6 -9 -6 0 -22 -11 -35 -25 -13 -14 -28 -25 -34 -25 -6 0
-8 -4 -5 -10 3 -5 1 -10 -6 -10 -6 0 -22 -12 -35 -27 -13 -16 -24 -25 -24 -20
0 4 -9 -2 -20 -13 -11 -11 -20 -24 -20 -30 0 -5 -7 -10 -15 -10 -8 0 -15 -5
-15 -11 0 -5 -5 -7 -10 -4 -6 4 -9 3 -8 -2 3 -10 -50 -63 -63 -63 -4 0 -11 -9
-14 -21 -4 -11 -9 -18 -12 -15 -7 7 -33 -19 -33 -33 0 -6 -3 -10 -8 -8 -10 3
-261 -250 -254 -257 3 -3 -2 -6 -11 -6 -9 0 -17 -4 -17 -8 0 -5 -31 -41 -70
-80 -38 -40 -67 -72 -65 -72 2 0 -20 -26 -50 -57 -29 -31 -51 -61 -49 -65 3
-5 0 -7 -8 -6 -7 2 -12 -3 -10 -9 1 -7 -2 -13 -8 -13 -5 0 -26 -21 -46 -47
-20 -27 -40 -47 -46 -45 -5 1 -7 -2 -3 -8 3 -5 1 -10 -5 -10 -6 0 -9 -4 -6 -9
3 -5 -1 -11 -9 -15 -8 -3 -15 -13 -15 -21 0 -9 -4 -13 -10 -10 -5 3 -10 0 -10
-7 0 -8 -8 -21 -17 -30 -28 -26 -44 -48 -36 -48 4 0 -3 -7 -15 -16 -12 -8 -20
-20 -17 -25 4 -5 2 -9 -4 -9 -5 0 -18 -13 -27 -29 -10 -17 -21 -28 -26 -25 -5
3 -7 2 -6 -3 3 -12 -31 -73 -42 -73 -5 0 -12 -11 -16 -25 -3 -14 -10 -22 -15
-19 -5 3 -9 -1 -9 -9 0 -12 -9 -26 -50 -74 -6 -7 -8 -13 -4 -13 4 0 -3 -11
-16 -25 -13 -14 -20 -25 -16 -25 4 0 1 -7 -6 -15 -30 -33 -38 -45 -32 -45 3 0
1 -7 -6 -15 -7 -8 -9 -15 -6 -15 4 0 1 -6 -6 -14 -7 -8 -16 -12 -20 -9 -7 4
-10 -11 -7 -33 0 -3 -8 -12 -18 -20 -10 -7 -14 -14 -9 -14 5 0 1 -9 -9 -20
-10 -11 -15 -20 -11 -20 4 0 0 -7 -8 -16 -9 -8 -14 -20 -11 -25 4 -5 1 -9 -4
-9 -6 0 -11 -7 -11 -16 0 -8 -5 -12 -10 -9 -6 4 -9 3 -8 -2 4 -12 -36 -103
-44 -103 -5 0 -8 -8 -8 -18 0 -10 -7 -27 -15 -38 -8 -10 -15 -27 -15 -37 0
-10 -4 -16 -9 -13 -5 4 -8 -2 -7 -11 2 -10 -1 -21 -7 -24 -5 -4 -9 -18 -9 -33
0 -14 -4 -24 -8 -21 -8 5 -23 -32 -21 -52 1 -7 -2 -13 -7 -13 -5 0 -9 -7 -10
-15 -1 -8 -3 -22 -4 -30 -1 -8 -6 -15 -11 -15 -5 0 -7 -6 -4 -14 3 -7 2 -17
-3 -22 -5 -5 -11 -21 -14 -36 -2 -14 -8 -35 -13 -45 -5 -10 -9 -25 -8 -33 1
-8 -4 -26 -11 -40 -6 -14 -10 -33 -9 -42 2 -10 0 -18 -4 -18 -4 0 -8 -16 -9
-35 -1 -19 -5 -43 -9 -53 -5 -9 -8 -32 -8 -49 0 -18 -3 -33 -7 -33 -4 0 -8 -5
-8 -11 0 -5 6 -7 13 -3 9 6 9 4 0 -7 -17 -17 -17 -32 -1 -23 10 6 10 4 0 -8
-9 -12 -11 -54 -7 -174 6 -207 7 -214 18 -214 5 0 7 -7 3 -15 -3 -8 -1 -15 4
-15 5 0 7 -7 4 -15 -4 -8 -3 -23 1 -32 5 -10 9 -24 11 -32 6 -32 50 -146 57
-149 4 -2 5 -8 1 -13 -3 -5 0 -9 7 -9 6 0 9 -8 6 -20 -3 -11 -2 -18 2 -15 4 2
14 -11 21 -30 8 -19 17 -35 21 -35 4 0 9 -8 12 -17 8 -25 38 -73 62 -99 11
-12 31 -37 45 -55 34 -46 160 -169 171 -169 6 0 7 -5 3 -12 -4 -6 -3 -8 3 -5
5 3 26 -9 46 -28 21 -19 37 -32 37 -27 0 4 7 -2 15 -12 8 -11 15 -16 15 -12 0
4 15 -4 33 -18 19 -14 37 -23 40 -19 4 3 7 1 7 -6 0 -7 14 -17 30 -22 17 -6
30 -16 30 -22 0 -6 3 -7 7 -4 3 4 12 -1 20 -11 8 -9 12 -11 8 -5 -4 9 -1 11 9
7 9 -3 16 -10 16 -15 0 -5 9 -9 19 -9 11 0 23 -5 26 -10 4 -6 11 -8 16 -5 5 4
9 0 9 -8 0 -9 9 -13 25 -12 14 2 25 -2 25 -9 0 -6 12 -13 27 -14 15 -1 31 -9
35 -17 5 -8 15 -12 23 -8 9 3 21 1 28 -4 22 -17 69 -34 62 -23 -4 6 8 2 27 -8
18 -10 41 -18 51 -16 9 1 21 -5 27 -14 7 -12 9 -13 10 -3 0 10 3 11 13 3 7 -6
28 -12 45 -14 18 -1 32 -6 32 -11 0 -5 7 -7 15 -4 8 4 17 2 20 -3 3 -5 14 -7
25 -5 11 2 20 0 20 -5 0 -5 9 -7 20 -5 11 2 22 0 25 -5 3 -5 12 -7 19 -4 8 3
17 1 20 -4 3 -5 17 -8 31 -7 14 2 25 0 25 -3 0 -4 10 -8 23 -8 12 -1 45 -5 72
-9 28 -4 58 -7 67 -7 10 0 20 -4 24 -9 4 -6 11 -6 20 2 9 7 14 7 14 1 0 -5 14
-9 30 -8 17 1 30 0 30 -4 0 -3 27 -5 60 -5 33 0 60 -2 60 -5 0 -3 9 -6 20 -7
11 -1 18 2 15 7 -3 6 1 7 9 4 9 -3 13 -11 9 -18 -5 -8 -3 -8 8 0 8 6 23 10 34
8 11 -2 62 -5 112 -6 54 -2 93 -7 93 -13 0 -7 3 -7 8 0 9 13 55 14 64 0 5 -7
8 -7 8 1 0 9 65 12 95 4 6 -1 12 -1 15 0 3 1 55 3 116 4 61 2 116 6 122 10 7
4 12 3 12 -3 0 -6 11 -6 29 -1 19 5 33 4 40 -3 8 -8 11 -8 11 0 0 8 13 11 35
9 21 -3 35 1 35 8 0 6 5 4 10 -4 8 -13 10 -12 10 3 0 15 -20 23 -45 17 -11 -3
-14 -3 -62 3 -20 2 -29 -1 -25 -7 4 -8 1 -7 -9 0 -8 6 -26 9 -42 8 -19 -2 -25
1 -20 9 4 8 1 8 -9 -1 -13 -10 -17 -10 -21 0 -4 11 -6 10 -6 0 -1 -7 -6 -10
-12 -6 -7 4 -35 8 -63 10 -44 3 -108 9 -166 17 -8 2 -21 7 -29 11 -10 7 -12 6
-6 -4 6 -10 4 -11 -6 -4 -16 10 -32 13 -76 16 -18 0 -33 5 -33 9 0 4 -9 6 -20
4 -11 -2 -22 0 -25 5 -3 4 -15 6 -27 2 -12 -3 -19 -1 -15 4 3 5 -2 10 -11 10
-34 1 -96 15 -102 22 -3 4 -12 7 -20 7 -8 -1 -23 4 -34 11 -10 7 -25 10 -32 7
-8 -3 -14 0 -14 7 0 6 -4 9 -8 6 -5 -3 -21 2 -36 10 -16 7 -35 14 -42 14 -8 0
-14 4 -14 8 0 5 -7 9 -15 10 -8 1 -22 3 -30 4 -8 1 -15 5 -15 9 0 4 -11 10
-25 13 -16 4 -23 11 -19 18 4 6 3 8 -3 5 -11 -7 -63 14 -63 26 0 4 -9 7 -20 7
-11 0 -20 5 -20 10 0 6 -7 10 -15 10 -8 0 -15 5 -15 10 0 6 -4 10 -10 10 -5 0
-21 10 -36 23 -14 12 -27 21 -30 20 -2 -2 -26 20 -54 47 -28 28 -53 50 -56 50
-7 0 -56 58 -52 62 2 2 -12 18 -31 36 -19 17 -31 32 -28 32 5 0 -24 49 -50 85
-5 6 -9 17 -11 25 -2 8 -9 18 -15 22 -7 4 -8 8 -4 8 4 0 2 10 -5 23 -6 12 -13
28 -14 35 -1 8 -6 21 -10 30 -4 9 -8 24 -10 32 -7 40 -11 50 -17 56 -4 4 -2
13 3 19 7 9 6 16 -4 24 -8 6 -12 21 -9 31 3 12 0 20 -7 20 -9 0 -9 4 -3 13 12
14 13 47 2 47 -9 0 -7 20 4 37 4 6 2 15 -4 19 -8 4 -7 9 2 15 8 5 9 9 3 9 -7
0 -8 17 -4 50 3 27 5 58 3 70 -1 11 1 20 6 20 4 0 7 14 5 31 -2 16 0 28 5 24
5 -3 7 4 4 15 -3 11 0 26 6 33 6 8 8 17 5 20 -4 3 -3 14 1 24 7 17 12 36 18
73 1 8 5 20 8 25 6 9 31 80 35 98 1 4 3 10 4 15 1 4 2 10 1 15 0 4 4 7 10 7 5
0 8 4 5 8 -3 5 4 23 15 41 11 18 15 30 9 26 -6 -3 -7 0 -4 9 3 9 10 16 16 16
5 0 7 4 3 9 -3 6 3 14 12 20 14 8 15 11 3 11 -12 1 -11 4 4 15 10 7 15 19 11
24 -3 6 1 14 9 17 9 3 14 10 11 14 -3 5 2 16 11 24 8 9 13 16 9 16 -3 0 2 11
11 25 9 14 13 25 10 25 -4 0 2 10 14 22 11 12 20 27 20 34 0 6 7 17 15 24 8 7
12 16 10 21 -3 5 3 14 14 20 10 7 17 18 14 26 -3 7 2 16 11 19 9 3 14 10 11
14 -2 4 6 19 20 34 13 14 22 26 19 26 -2 0 8 18 22 40 15 22 31 40 35 40 5 0
9 6 9 14 0 7 11 25 24 39 13 14 21 28 18 31 -3 3 0 6 6 6 7 0 12 6 12 14 0 8
7 17 16 20 9 4 14 9 11 12 -3 3 8 19 24 35 16 16 26 29 22 29 -4 0 8 16 27 35
19 19 31 35 27 35 -4 0 1 8 11 18 9 11 20 17 25 15 4 -2 7 2 7 10 0 8 14 29
32 46 17 17 29 31 25 31 -3 0 4 10 16 23 12 13 25 22 28 20 4 -1 12 11 19 27
7 16 15 28 19 27 3 -1 6 1 6 5 0 3 12 16 28 28 15 12 25 26 22 31 -4 5 -1 9 4
9 11 0 49 34 54 48 1 4 5 6 9 5 4 -2 10 6 13 17 4 11 11 18 16 15 5 -4 9 -2 9
4 0 13 48 61 60 61 6 0 9 3 7 8 -2 7 150 162 161 162 4 1 21 20 39 43 22 29
28 44 20 49 -7 4 -8 8 -3 8 5 0 3 6 -3 13 -6 8 -8 17 -4 20 3 4 2 7 -3 7 -5 0
-11 12 -12 27 -1 15 -5 29 -10 32 -4 3 -9 20 -11 36 -1 17 -6 32 -10 35 -3 3
-8 16 -10 30 -4 28 -9 53 -11 60 -1 3 -2 8 -1 13 0 4 -3 7 -9 7 -5 0 -7 7 -4
15 4 8 1 22 -6 30 -7 8 -10 15 -8 15 3 0 1 19 -3 43 -5 23 -11 56 -14 72 -3
17 -7 38 -8 47 -2 10 -6 21 -10 24 -4 4 -2 13 4 21 8 8 8 13 1 13 -6 0 -9 11
-7 25 1 14 -1 27 -5 30 -7 4 -10 33 -13 122 -1 28 -5 49 -8 47 -3 -2 -5 18 -4
44 1 26 -1 51 -4 57 -11 21 -10 55 2 48 9 -5 9 -3 1 8 -15 20 -16 69 -1 70 6
0 3 4 -8 9 -11 5 -14 9 -7 9 7 1 10 6 6 12 -7 13 -11 119 -4 119 7 0 3 116 -4
129 -4 5 1 14 10 19 15 8 15 10 0 15 -9 4 -16 2 -16 -3z"/>
<path d="M11917 6593 c-4 -3 -7 -11 -7 -17 0 -6 5 -5 12 2 6 6 9 14 7 17 -3 3
-9 2 -12 -2z"/>
<path d="M3911 2718 c-1 -14 7 -16 49 -14 28 2 54 7 58 10 3 4 -6 5 -21 2 -14
-2 -29 0 -32 5 -4 5 -13 5 -25 -1 -13 -7 -20 -6 -23 3 -3 7 -6 5 -6 -5z"/>
</g>
</svg>
